<svg xmlns="http://www.w3.org/2000/svg" viewBox="0 0 134.4 59.2">
    <title>logo-b</title>
    <g id="a796d182-3de7-4764-8b02-0b022c4a829b" data-name="Layer 2">
        <g id="bd3ae3cb-1316-43bb-b94a-e1f127a9ac26" data-name="Layer 1">
            <path fill="#fff"
                d="M18.1,0h15a25.7,25.7,0,0,0-5.3,9.1,39.7,39.7,0,0,0-2.4,14.5,46.4,46.4,0,0,0,2.9,16.9c1.9,4.8,4.5,7.3,7.8,7.3.7,0,2.1-.9,4-2.7a24.6,24.6,0,0,0,5.4-7.9,31.9,31.9,0,0,0,2.4-13.1,19.8,19.8,0,0,0-2.5-10c-1.7-3-3.8-4.6-6.3-4.6a2.6,2.6,0,0,0-1.4.7,17.3,17.3,0,0,0-1.8,1.9,14.2,14.2,0,0,1,3-6.8C40.5,3.1,42.1,2,43.6,2s4.6,1.9,7.5,5.8A21.1,21.1,0,0,1,55.6,21c0,5.5-2.4,11.6-7.3,18.4S38.6,49.6,33.6,49.6a12.8,12.8,0,0,1-11.9-7A34.8,34.8,0,0,1,17.9,26a32.4,32.4,0,0,1,2.5-13A53.3,53.3,0,0,1,26.9,1.7H18.8A18.8,18.8,0,0,0,7.6,5.1,10.5,10.5,0,0,0,3.1,14a18.4,18.4,0,0,0,2.4,8.6c1.6,2.9,4.4,5.6,8.5,7.9A13.6,13.6,0,0,1,4,26.6a13.3,13.3,0,0,1-4-10C0,11.3,1.8,7.3,5.5,4.4A19.5,19.5,0,0,1,18.1,0Z" />
            <path fill="#fff"
                d="M72.8,13.1a7.5,7.5,0,0,1,3.9.9,19.8,19.8,0,0,1,4.2,3.5L66.3,32.1a5.1,5.1,0,0,0,3,2.5,12,12,0,0,0,4,.6,8.6,8.6,0,0,0,4.1-1A23.3,23.3,0,0,0,80.9,32a18.4,18.4,0,0,1-5.2,5.5,12.7,12.7,0,0,1-6.6,1.9c-3.6,0-6.1-1.2-7.6-3.5a13.1,13.1,0,0,1-2.2-7.4q0-6.9,3.9-11.1A12.3,12.3,0,0,1,72.8,13.1Zm-7,17.6L70,26.6c2.1-2.3,3.1-4,3.1-5.2a4.4,4.4,0,0,0-1-3.2A3.4,3.4,0,0,0,69.4,17c-1.4,0-2.5.8-3.3,2.5a13.2,13.2,0,0,0-1.2,5.9,24.6,24.6,0,0,0,.2,2.8A7.8,7.8,0,0,0,65.8,30.7Z" />
            <path fill="#fff"
                d="M105.3,42.1A17.6,17.6,0,0,1,101,54.2c-2.9,3.4-6.1,5-9.7,5s-4.6-.8-5.7-2.4a11.4,11.4,0,0,1-1.5-6.2,15.1,15.1,0,0,1,.8-5.1,21.4,21.4,0,0,1,4.2-6.4c-1.4,0-2.6-.8-3.7-2.3a11.3,11.3,0,0,1-1.5-6.3c0-5.2,1.7-9.4,5.2-12.5a15.7,15.7,0,0,1,11-4.7h5.2ZM99.7,31.3c-2.9,2.8-5.8,5.6-8.6,8.5a16.3,16.3,0,0,0-3.4,9.6q0,3.5,1.5,4.8A5.7,5.7,0,0,0,97.9,53a10.7,10.7,0,0,0,1.8-6.3ZM89.6,26a8,8,0,0,0,1,4.3,3,3,0,0,0,2.6,1.4,6.4,6.4,0,0,0,3.1-.9,21.4,21.4,0,0,0,3.4-2.4V15.1a9,9,0,0,0-7.3,3.3A11.7,11.7,0,0,0,89.6,26Z" />
            <path fill="#fff"
                d="M129.9,13.4V35.6a.7.7,0,0,0,.8.8L132,36l2.4-1.4a9.4,9.4,0,0,1-2.6,3.2,5.8,5.8,0,0,1-3.5,1.6,4.3,4.3,0,0,1-2.5-1.4,4.3,4.3,0,0,1-1.5-3.5V31.3c-2.5,2.4-4.5,4.4-6.2,5.8s-3.2,2.3-4.4,2.3-2.6-.8-3.6-2.4a11.4,11.4,0,0,1-1.6-6.5q0-8.1,4.5-12.6a15.8,15.8,0,0,1,11.7-4.5ZM114.2,26a8,8,0,0,0,1,4.3,3,3,0,0,0,2.6,1.4,6.4,6.4,0,0,0,3.1-.9,21.4,21.4,0,0,0,3.4-2.4V15.1a9,9,0,0,0-7.3,3.3A11.7,11.7,0,0,0,114.2,26Z" />
        </g>
    </g>
</svg>
